<?xml version="1.0" encoding="UTF-8"?>
<svg xmlns="http://www.w3.org/2000/svg" version="1.1" viewBox="0 0 1920 1281.31">
  <defs>
    <style>
      .cls-1 {
        fill: gray;
      }

      .cls-2 {
        fill: #0a0a0a;
      }

      .cls-3 {
        fill: #b3b3b3;
      }

      .cls-4 {
        display: none;
      }
    </style>
  </defs>
  <!-- Generator: Adobe Illustrator 28.7.0, SVG Export Plug-In . SVG Version: 1.2.0 Build 136)  -->
  <g>
    <g id="Layer_2" class="cls-4">
      <rect class="cls-2" x="0" width="1920" height="1281.31"/>
    </g>
    <g id="Layer_1">
      <path class="cls-3" d="M0,1281.31V0h1920v1281.31H0Z"/>
      <path d="M1126.79,326.66c-1.06-1.16-1.7-1.56-1.92-2.13-13.59-35.32-14.68-36.06-54.23-36.15-18.27-.04-36.55-.12-54.82.01-27.02.19-34.12,5.69-41.03,31.67-.91,3.41-2.47,5.91-6.3,7.57-8.49-1.87-8.04-8.44-6.76-15.08,3.91-20.33,21.17-36.73,42.31-37.48,29.33-1.04,58.74-.73,88.09-.13,16.11.33,28.46,8.65,36.85,22.4,3.02,4.96,5.36,10.34,7.91,15.31,9.47,2.8,18.65,1.33,27.72,1.53,30.81.69,49.88,18.47,52.37,49.15.21,2.59.1,5.22.1,7.83,0,75.06-.36,150.11.18,225.17.26,35.79-26.26,54.5-55.26,54.24-129.22-1.16-258.45-.49-387.68-.56-37.35-.02-55.41-17.54-55.57-54.99-.32-75.05-.3-150.11,0-225.17.14-36.83,19.03-55.45,55.63-55.59,46.34-.17,92.68-.07,139.02.03,5.74.01,11.77-1.19,16.83,2.15,3.07,5.51,1.68,9.67-3.86,10.83-5.67,1.18-11.66,1.08-17.5,1.09-45.03.07-90.07-.09-135.1.07-29.45.1-41.29,11.97-41.36,41.77-.17,75.05-.17,150.11-.04,225.16.05,28.77,11.65,40.71,40.15,40.76,129.88.19,259.76.24,389.64.09,30.04-.03,41.08-11.45,41.15-41.79.16-74.4.18-148.81,0-223.21-.07-31.39-11.52-42.45-42.39-42.91-11.59-.17-23.4,2.02-34.11-1.66Z"/>
      <path d="M936.56,483.2c-3.31-51.91,40.64-112.86,112.25-113.36,57.68-.4,112.23,47.6,111.77,112.05-.44,63.27-49.46,112.67-112.5,113.14-59.44.44-114.34-51.87-111.53-111.83Z"/>
      <path d="M681.47,1000.47c-5.8,1.58-8.95,2.2-13.76-2.01.97-29.17-2.47-60.12,2.21-89.84,5.97-3.91,10.37-3.01,16.45-1.15,9.85,19.03,20.25,39.12,32.26,62.32,15.04-21.07,22.12-43.44,34.11-62.27,5.64-2.45,10.68-2.45,17.09.05v92.31c-3.67,3.11-7.21,2.66-11.75.26-3.2-21.74,1.14-44.44-2.76-69.5-13.47,21.18-19.63,43.4-34.11,61.32-12.61-6.81-14.24-18.7-19.6-27.87-5.5-9.42-10.07-19.38-17.13-33.16-4.84,14.56-2.49,25.31-2.91,35.66-.45,10.99-.1,22-.1,33.89Z"/>
      <path d="M900.27,971.95c2.7-12.07,1.54-22.35,1.71-32.5.17-10.34.04-20.68.04-29.2,4.61-5.61,8.25-4.15,13.23-3.03v92.35c-4.07,3.87-7.99,1.79-11.43,2.55-20.14-20.96-33.26-46.82-56.85-69.79v64.86c-5.26,6.05-8.84,5.04-13.33,2.95v-91.82c10.54-5.69,15.8-.23,20.78,6.46,10.11,13.59,20.36,27.07,30.51,40.63,4.16,5.55,7.85,11.55,15.34,16.55Z"/>
      <path d="M1479.8,907.68v91.61c-4.18,4.18-8.54,3.03-13,1.75-18.71-20.58-32.45-45.24-53.91-67.69-4.79,23.88.11,45.84-3.16,65.89-4.09,3.56-7.19,2.69-11.75,1.63v-92.26c9.44-6.08,15-1.38,20.1,5.46,10.13,13.58,20.32,27.11,30.6,40.58,4.23,5.54,8.72,10.87,16.41,15.44v-57.57c4.77-7.56,8.48-7,14.71-4.84Z"/>
      <path d="M1213.52,905.64c28.49.12,50.96,21.24,51.22,48.15.27,27.39-23.32,49.28-52.54,48.77-27.18-.47-49.84-21.7-50.34-47.18-.54-27.41,22.77-49.86,51.66-49.74Z"/>
      <path d="M1326.87,1002.62c-28.39-.08-50.88-21.26-51.1-48.15-.24-28.1,22.3-49.25,52.05-48.85,28.27.38,50.76,22.11,50.58,48.89-.18,26.25-23.67,48.19-51.52,48.11Z"/>
      <path d="M597.7,1002.62c-27.71-.26-51.4-22.78-51.09-48.56.34-27.85,23.44-49.04,52.81-48.43,27.8.57,50.52,22.99,50.12,49.45-.41,26.67-23.46,47.81-51.84,47.54Z"/>
      <path d="M1098.07,924.85c-2.42,10.08,3.27,14.87,11.14,18.06,7.85,3.19,15.98,5.72,23.71,9.14,10.5,4.64,16.3,12.72,15.87,24.6-.44,12.11-7.66,19.35-18.2,22.99-19.39,6.71-37.08,3.17-52.26-10.13-.72-4.12-.45-7.25,2.8-10.16,1.36.1,3.57-.39,4.9.47,10.17,6.62,20.96,10.43,33.3,8.71,6.28-.87,11.58-3.22,13.06-9.88,1.67-7.55-2.19-12.62-8.95-15.35-6.64-2.68-13.43-5.07-20.28-7.16-7.06-2.15-13.15-5.59-17.9-11.05-7.78-25.33,2-39.35,27.97-39.96,11.76-.28,23.44.34,32.43,8.91,0,4.23-1,7.15-5.08,9.31-13.69-.96-28.83-14.12-42.51,1.5Z"/>
      <path d="M1020.71,989.94c-26.58,18.97-55.82,16.66-74.89-5.92-14.56-17.24-13.58-46.17,2.12-62.49,19.25-20.01,48.68-21.36,71.79-3.28-.06,3.62-1.96,5.97-5.07,7.46-30.7-11.65-48.64-8.68-60.4,9.99-8.74,13.87-6.81,30.56,4.99,42.94,13.37,14.04,29.23,15.24,49.05,3.78,5.01-7.46-.26-17.04,5.19-24.34,10.42,4.12,10.68,5.29,7.22,31.86Z"/>
      <path d="M531.36,980.61c2.3,2.62,3.55,4.03,5.41,6.15-5.5,10.36-15.75,13.24-25.65,15.22-22.37,4.49-43.75-6.99-53.18-27.44-9.46-20.51-2.93-46.71,14.9-59.84,18.25-13.44,43.09-11.8,62.8,4.15.79,3.77-.9,6.2-4.39,7.88-4.31,1.23-6.89-2.54-10.25-4.15-18.01-8.62-36.61-4.78-47.03,10.04-8.19,11.65-9.49,24.26-3.14,37.01,6.38,12.81,17.2,18.97,31.58,19.39,10.23.3,18.98-3.99,28.95-8.4Z"/>
      <g>
        <path d="M794.35,839.58c-5.89,3.17-10.74,2.86-16.91.06v-92.49c7.85-2.91,14.79-2.09,22.26-1,11.94,16.91,16.63,37.79,29.39,55.58,11.99-17.82,16.32-38.12,27.83-54.94,7.74-2.35,15.19-2.22,23.79.18v91.9c-4.95,5.02-10.47,2.34-16.72,2.12-3.51-19.35-.1-38.21-5.62-57.84-7.4,15.42-14.8,30.84-21.75,45.32-5.43,2.9-9.76,3-16,.04-6.36-13.82-13.36-29.05-20.37-44.29-6.96,18.41-2.4,37.58-5.89,55.38Z"/>
        <path d="M1133.61,802.68c-1.6,7.59-2.33,13.27,1.1,19.91,15.3,3.26,31.66-.34,47.14,2.14,4.47,4.8,4.43,9.72,2.15,16.27-23.3,2.02-47.1.6-73.83.84-1.78-31.53-.87-62.33-.45-95.97,24.45-1.24,47.99-1.09,70.57-.17,3.56,6.07,3.65,10.26-.24,16.09h-44.36c-5.26,7.51-3.73,13.6-1.52,20.41,13.61,5.04,28.28-.33,42.02,3.37,4.14,3.79,2.81,8.27,1.79,13.97-13.72,5.17-28.94.4-44.37,3.14Z"/>
        <path d="M931.47,746.96c9.87-2.26,16.89-2.69,25.84.51,12.48,29.72,25.47,60.66,38.45,91.59-7.8,4.19-14.16,2.79-20.26,2.13-5.96-4.07-5.91-11.66-10.72-17.03-13.91-2.16-27.99-1.92-41.13-.3-6.59,4.6-6.37,12.41-11.7,16.88-6.16,1.69-12.49,2.05-20.29-.83,13.32-31.1,26.55-61.99,39.81-92.95Z"/>
        <path d="M1067.09,817.49c.59-8.03,1.11-15.09,1.64-22.25,5.84-3.7,11.24-2.92,16.67-.68,3.84,16.88,3.76,19.41-1.14,35.99-29.69,17.9-59.13,14.95-77.32-7.74-14.81-18.47-12.72-47.56,4.59-63.98,19.36-18.37,50.95-19.05,72.9-1.42.66,6.06-3.88,8.89-7.86,12.29-6.88.58-11.61-5.06-18.12-6.04-15.73-2.37-28.64,2.74-34.98,15.02-6.01,11.64-3.76,27.32,5.19,36.21,10.09,10.02,21.14,11,38.44,2.61Z"/>
        <path d="M734.49,746.96c7.83-1.96,13.49-2.76,20.26.59v92.33c-6.52,3.05-12.65,2.45-20.26.23v-93.16Z"/>
        <path class="cls-3" d="M930.05,804.4s9.95-43.2,13.66-43.2,16.29,43.2,16.29,43.2h-29.95Z"/>
      </g>
      <path d="M794.62,908.42c4-2.52,6.46-2.62,11.93-.36,1.39,29.89.94,61.06.14,90.89-4.5,3.79-7.55,3.05-12.07,1.78v-92.3Z"/>
      <path d="M1005.67,328.09c-2.74-6.01-2.82-9.02-.35-11.76,32.48-5.56,80-3.03,89.39,4.79-.38,4.81-3.75,6.85-7.83,6.88-27.05.18-54.11.09-81.21.09Z"/>
      <path d="M785.61,369.44c12.72,2.85,21.41,8.39,21.66,21.88.25,13.34-7.67,19.71-19.5,22.52-16.84-4.57-22.93-10.06-22.93-21.46,0-13.11,7.95-19.62,20.76-22.94Z"/>
      <path d="M766.26,566.6c7.86-8.82,46.05-12.44,62.9-8.7,5.01,1.11,8.43,3.22,6.45,12.11-22.81,1.74-46.15,3.78-69.35-3.41Z"/>
      <path class="cls-3" d="M1048.62,580.85c-56.02-.16-99.19-43.25-99.44-99.23-.23-52.98,45.2-97.93,99.2-98.16,54.44-.23,99.26,44.81,99.49,99.97.23,53.8-44.38,97.58-99.26,97.42Z"/>
      <path class="cls-3" d="M1250.19,954.48c-.44,20.21-18.55,37.35-38.31,36.26-19.49-1.08-36.66-18.76-35.91-36.99.78-19.01,18.28-36.35,36.75-36.41,20.49-.06,37.9,17.19,37.47,37.14Z"/>
      <path class="cls-3" d="M1363.74,954.64c-.56,20.21-18.84,37.34-38.5,36.08-19.15-1.23-35.97-18.91-35.58-37.42.4-19.44,19.26-36.81,38.94-35.87,19.65.94,35.68,17.92,35.15,37.21Z"/>
      <path class="cls-3" d="M598.7,990.84c-20.03-.01-38.49-18.08-37.95-37.15.54-19.09,17.48-35.88,36.68-36.35,19.93-.49,37.94,17.28,37.55,37.06-.37,19.16-17.59,36.45-36.28,36.44Z"/>
      <path class="cls-1" d="M787.22,400.65c-9.75-5.66-10.01-10.59-2.34-16.85,10.64,3.6,11.55,8.52,2.34,16.85Z"/>
      <path d="M971.79,482.3c0-42.77,34.49-77.53,76.88-77.49,42.14.04,76.66,35.18,76.5,77.88-.16,43.11-34.14,76.7-76.93,77.14-37.72.39-78.52-32.66-76.44-77.53Z"/>
      <path class="cls-3" d="M1047.13,545.64c-35.73-.59-63.15-28.89-62.11-64.1,1.08-36.7,29.52-63.74,65.9-62.67,33.44.98,61.96,30.38,61.66,63.56-.32,35.98-29.14,63.82-65.45,63.21Z"/>
      <path d="M1047.79,440.3c4.95,3.04,6.12,5.75,4.54,11.03-6.99,4.17-17.08,4.74-24.37,11.75-7.32,7.04-5.59,18.46-13,25.57-10.26-4.31-8.57-12.04-6.38-18.3,6.38-18.28,19.79-28.13,39.21-30.05Z"/>
    </g>
  </g>
</svg>